Coordinates
version=1
nRows=4
nColumns=107
inDegrees=yes

Units are S.I. units (second, meters, Newtons, ...)
If the header above contains a line with 'inDegrees', this indicates whether rotational values are in degrees (yes) or radians (no).

endheader
time	sternoclavicular_r2	sternoclavicular_r3	unrotscap_r3	unrotscap_r2	acromioclavicular_r2	acromioclavicular_r3	acromioclavicular_r1	unrothum_r1	unrothum_r3	unrothum_r2	elv_angle	shoulder_elv	shoulder1_r2	shoulder_rot	elbow_flexion	pro_sup	deviation	flexion	proximal_distal_r1	proximal_distal_r3	cmc_flexion	cmc_abduction	mp_flexion	ip_flexion	mcp2_flexion	mcp2_abduction	pm2_flexion	md2_flexion	mcp3_flexion	mcp3_abduction	pm3_flexion	md3_flexion	mcp4_flexion	mcp4_abduction	pm4_flexion	md4_flexion	mcp5_flexion	mcp5_abduction	pm5_flexion	md5_flexion	bicpt_tx	bicpt_ty	bicpt_tz	bicpt2_tx	bicpt2_ty	bicpt2_tz	ptpt_tx	ptpt_ty	ptpt_tz	FCUpt_tx	FCUpt_ty	FCUpt_tz	EDCpt_tx	EDCpt_ty	EDCpt_tz	APLpt_tx	APLpt_ty	APLpt_tz	FPLpt_tx	FPLpt_ty	FPLpt_tz	FPLpt2_tx	FPLpt2_ty	FPLpt2_tz	PEC1pt2_tx	PEC1pt2_ty	PEC1pt2_tz	PEC1pt3_tx	PEC1pt3_ty	PEC1pt3_tz	PEC2pt2_tx	PEC2pt2_ty	PEC2pt2_tz	PEC2pt3_tx	PEC2pt3_ty	PEC2pt3_tz	PEC3pt2_tx	PEC3pt2_ty	PEC3pt2_tz	PEC3pt3_tx	PEC3pt3_ty	PEC3pt3_tz	DELT2pt2a_tx	DELT2pt2a_ty	DELT2pt2a_tz	DELT2pt2_tx	DELT2pt2_ty	DELT2pt2_tz	LAT1pt2_tx	LAT1pt2_ty	LAT1pt2_tz	LAT1pt3_tx	LAT1pt3_ty	LAT1pt3_tz	LAT2pt2_tx	LAT2pt2_ty	LAT2pt2_tz	LAT2pt3_tx	LAT2pt3_ty	LAT2pt3_tz	LAT3pt2_tx	LAT3pt2_ty	LAT3pt2_tz	LAT3pt3_tx	LAT3pt3_ty	LAT3pt3_tz
      1.93333333	     -0.34552867	      0.14634964	     -0.14634964	      0.34552867	     -0.06996253	      0.56541254	      0.25414904	     -0.25414904	     -0.56541254	      0.06996253	     95.51961156	     81.80698457	     -1.66713172	     -0.35444875	     29.88293829	     21.52954749	     -0.12411674	     -0.84791751	     -0.18105293	     -0.42395875	     36.04481570	    -21.04023721	     -8.33222197	     10.79317826	     -8.88779379	     10.15549795	     22.00234118	    -14.96282884	     -0.06458093	      1.97056484	      7.59594626	     10.98623963	      0.69137273	     -2.43649819	     -4.44380978	     18.06595560	     -5.46949305	    -12.10956888	     10.55392820	      5.04558140	      0.00088843	     -0.03102504	     -0.00485168	      0.01614966	     -0.01831785	     -0.00920261	      0.00595921	     -0.06592863	     -0.00178432	      0.00597330	     -0.18383086	     -0.00012684	     -0.00258354	      0.00068153	      0.00018657	      0.00026544	      0.00010618	      0.00053088	      0.00033976	      0.00101929	      0.00057335	     -0.00001285	     -0.00017933	     -0.00021519	      0.00268145	      0.00940781	      0.00654456	     -0.00877153	      0.02117894	     -0.02008818	      0.00268145	      0.00940781	      0.00654456	      0.00059083	      0.01963369	     -0.01031678	      0.00415560	      0.00523156	      0.01645239	      0.00000000	      0.00896002	      0.00000000	     -0.00768077	     -0.03549517	     -0.00739381	     -0.00014140	      0.00000196	      0.00001329	     -0.00095442	      0.01599782	     -0.00654456	      0.00263601	      0.02308777	     -0.01908831	     -0.00640822	      0.01386175	     -0.00586284	     -0.01336182	      0.02926875	     -0.03276827	     -0.02508750	      0.01549789	     -0.00786257	     -0.01663410	      0.03381358	     -0.04094898
      1.96666667	     -0.34900557	      0.14782229	     -0.14782229	      0.34900557	     -0.07066653	      0.57110203	      0.25670643	     -0.25670643	     -0.57110203	      0.07066653	     95.18355299	     82.63017138	     -1.66126639	      2.47046244	     29.95680638	     18.63600642	     -0.13007674	     -0.84102159	     -0.19038122	     -0.42051079	     36.05790895	    -21.54640951	     -5.35512587	     11.13204273	     -9.88203863	     10.20448860	     21.18495233	    -15.38339653	     -1.78870284	      1.88556948	      7.70812353	     10.85180764	     -0.78131802	     -2.24292946	     -6.35442554	     18.18823617	     -7.64441191	    -11.90906951	      9.57003495	      5.12637070	      0.00089088	     -0.03103351	     -0.00485305	      0.01601241	     -0.01833791	     -0.00943070	      0.00617301	     -0.06579038	     -0.00155123	      0.00569977	     -0.18387469	     -0.00006290	     -0.00223632	      0.00058161	      0.00017611	      0.00026814	      0.00010726	      0.00053628	      0.00034322	      0.00102965	      0.00057918	     -0.00001285	     -0.00017913	     -0.00021496	      0.00270844	      0.00950248	      0.00661042	     -0.00885980	      0.02139205	     -0.02029031	      0.00270844	      0.00950248	      0.00661042	      0.00059677	      0.01983126	     -0.01042059	      0.00418494	      0.00528421	      0.01651707	      0.00000000	      0.00914280	      0.00000000	     -0.00775806	     -0.03585234	     -0.00754530	     -0.00256718	     -0.00003583	     -0.00017403	     -0.00096402	      0.01615880	     -0.00661042	      0.00266253	      0.02332009	     -0.01928039	     -0.00647270	      0.01400124	     -0.00592183	     -0.01349627	      0.02956326	     -0.03309800	     -0.02533994	      0.01565384	     -0.00794168	     -0.01680148	      0.03415383	     -0.04136103
      2.00000000	     -0.34920999	      0.14790887	     -0.14790887	      0.34920999	     -0.07070792	      0.57143654	      0.25685679	     -0.25685679	     -0.57143654	      0.07070792	     95.17284446	     82.67857001	     -1.66107949	      2.66734088	     29.99510060	     18.62665252	     -0.13238899	     -0.84143943	     -0.19401632	     -0.42071971	     37.12243107	    -21.65714725	     -4.66268386	     11.38396346	     -9.73514826	     10.52437226	     21.08373805	    -15.41247223	     -1.82653054	      1.97513183	      7.60638598	     10.82109398	     -1.08384666	     -2.13173588	     -6.53881214	     18.12466489	     -8.10893968	    -11.96364891	      9.32821371	      5.07119938	      0.00089214	     -0.03103790	     -0.00485376	      0.01601194	     -0.01834832	     -0.00943142	      0.00617370	     -0.06578994	     -0.00155048	      0.00569889	     -0.18387482	     -0.00006268	     -0.00223519	      0.00058129	      0.00017607	      0.00026798	      0.00010719	      0.00053595	      0.00034301	      0.00102903	      0.00057883	     -0.00001266	     -0.00016247	     -0.00019496	      0.00271002	      0.00950804	      0.00661429	     -0.00886499	      0.02140458	     -0.02030220	      0.00271002	      0.00950804	      0.00661429	      0.00059712	      0.01984287	     -0.01042670	      0.00418665	      0.00528730	      0.01652083	      0.00000000	      0.00915360	      0.00000000	     -0.00776261	     -0.03587334	     -0.00755425	     -0.00274019	     -0.00004040	     -0.00019408	     -0.00096458	      0.01616827	     -0.00661429	      0.00266409	      0.02333375	     -0.01929168	     -0.00647649	      0.01400944	     -0.00592530	     -0.01350418	      0.02958058	     -0.03311739	     -0.02535478	      0.01566301	     -0.00794634	     -0.01681132	      0.03417384	     -0.04138525
      2.03333333	     -0.34916792	      0.14789105	     -0.14789105	      0.34916792	     -0.07069940	      0.57136769	      0.25682584	     -0.25682584	     -0.57136769	      0.07069940	     95.15973936	     82.66860827	     -1.66085077	      2.53799932	     30.08607832	     19.11973872	     -0.13353059	     -0.82744666	     -0.19581397	     -0.41372333	     37.21129429	    -22.11083509	     -2.14479515	     11.06811703	     -9.89973923	     10.68821835	     20.41236099	    -15.99130450	     -2.21834662	      2.10007072	      7.38208113	     11.01755287	     -1.35590297	     -1.80883270	     -7.16134044	     18.35704687	     -8.68113286	    -11.82908425	      9.47732725	      5.08874790	      0.00089515	     -0.03104832	     -0.00485543	      0.01603671	     -0.01837303	     -0.00939340	      0.00613727	     -0.06581350	     -0.00159020	      0.00574532	     -0.18386753	     -0.00007404	     -0.00229436	      0.00059814	      0.00017818	      0.00027323	      0.00010929	      0.00054645	      0.00034973	      0.00104919	      0.00059017	     -0.00001263	     -0.00016102	     -0.00019322	      0.00270970	      0.00950690	      0.00661349	     -0.00886392	      0.02140200	     -0.02029975	      0.00270970	      0.00950690	      0.00661349	      0.00059705	      0.01984048	     -0.01042544	      0.00418630	      0.00528667	      0.01652005	      0.00000000	      0.00915138	      0.00000000	     -0.00776167	     -0.03586902	     -0.00755241	     -0.00262645	     -0.00003736	     -0.00018077	     -0.00096447	      0.01616632	     -0.00661349	      0.00266377	      0.02333094	     -0.01928936	     -0.00647571	      0.01400775	     -0.00592459	     -0.01350255	      0.02957702	     -0.03311340	     -0.02535173	      0.01566112	     -0.00794538	     -0.01680930	      0.03416972	     -0.04138027
